<svg width="143" height="48" viewBox="0 0 143 48" fill="none" xmlns="http://www.w3.org/2000/svg">
<rect x="0.199951" width="142.8" height="48" rx="7.2" fill="#2B2D30"/>
<rect x="0.447661" y="0.247709" width="142.305" height="47.5046" rx="6.95229" stroke="#A6A6A6" stroke-opacity="0.3" stroke-width="0.495419"/>
<path d="M33.7699 24.6001C33.7829 23.6127 34.0515 22.6445 34.5508 21.7857C35.0501 20.9269 35.7638 20.2053 36.6254 19.6881C36.078 18.9248 35.3559 18.2967 34.5164 17.8536C33.6768 17.4105 32.743 17.1646 31.7891 17.1355C29.7543 16.9269 27.7816 18.3242 26.7447 18.3242C25.6877 18.3242 24.0912 17.1562 22.372 17.1907C21.26 17.2258 20.1763 17.5415 19.2264 18.107C18.2766 18.6726 17.493 19.4687 16.952 20.4179C14.6085 24.3792 16.3565 30.201 18.6014 33.403C19.7246 34.9709 21.0372 36.7224 22.7549 36.6603C24.4356 36.5922 25.0634 35.6139 27.0922 35.6139C29.1022 35.6139 29.6912 36.6603 31.4436 36.6208C33.2472 36.5922 34.3835 35.0459 35.4673 33.4631C36.2743 32.3459 36.8953 31.1111 37.3073 29.8045C36.2594 29.3718 35.3653 28.6476 34.7362 27.7221C34.1072 26.7966 33.7711 25.7108 33.7699 24.6001Z" fill="white"/>
<path d="M30.46 15.029C31.4434 13.8764 31.9279 12.3951 31.8106 10.8994C30.3082 11.0535 28.9204 11.7545 27.9238 12.8628C27.4365 13.4042 27.0632 14.0341 26.8254 14.7165C26.5876 15.3988 26.4899 16.1202 26.5379 16.8394C27.2893 16.847 28.0327 16.688 28.7121 16.3744C29.3915 16.0608 29.9891 15.6007 30.46 15.029Z" fill="white"/>
<path d="M46.7791 13.9974H49.0935C51.0933 13.9974 52.0662 15.1865 52.0662 17.3436C52.0662 19.5007 51.0835 20.7046 49.0935 20.7046H46.7791V13.9974ZM47.8945 14.9359V19.7661H48.9706C50.2973 19.7661 50.9213 18.9652 50.9213 17.3584C50.9213 15.7418 50.2924 14.9359 48.9706 14.9359H47.8945ZM55.5942 15.4224C56.9504 15.4224 57.8987 16.3019 57.8987 17.7613V18.4345C57.8987 19.943 56.9504 20.793 55.5942 20.793C54.2184 20.793 53.2799 19.9528 53.2799 18.4394V17.7662C53.2799 16.3462 54.2332 15.4224 55.5942 15.4224ZM55.5992 16.3019C54.8228 16.3019 54.3806 16.9505 54.3806 17.8203V18.4001C54.3806 19.2698 54.7933 19.9135 55.5992 19.9135C56.3952 19.9135 56.803 19.2747 56.803 18.4001V17.8203C56.803 16.9505 56.3755 16.3019 55.5992 16.3019ZM65.908 15.5108L64.542 20.7046H63.4315L62.3456 16.8719H62.3161L61.2499 20.7046H60.1345L58.7095 15.5108H59.8839L60.7192 19.4713H60.7683L61.8149 15.5108H62.8419L63.918 19.4713H63.9671L64.8172 15.5108H65.908ZM66.989 20.7046V15.5108H68.0602V16.4444H68.1143C68.2469 16.0366 68.6253 15.4322 69.6768 15.4322C70.7234 15.4322 71.4261 16.012 71.4261 17.1962V20.7046H70.3352V17.5156C70.3352 16.7245 69.9225 16.3609 69.3083 16.3609C68.5025 16.3609 68.0799 16.98 68.0799 17.8203V20.7046H66.989ZM73.0771 20.7046V13.6436H74.1679V20.7046H73.0771ZM77.9121 15.4224C79.2683 15.4224 80.2166 16.3019 80.2166 17.7613V18.4345C80.2166 19.943 79.2683 20.793 77.9121 20.793C76.5363 20.793 75.5978 19.9528 75.5978 18.4394V17.7662C75.5978 16.3462 76.551 15.4224 77.9121 15.4224ZM77.917 16.3019C77.1407 16.3019 76.6985 16.9505 76.6985 17.8203V18.4001C76.6985 19.2698 77.1112 19.9135 77.917 19.9135C78.7131 19.9135 79.1209 19.2747 79.1209 18.4001V17.8203C79.1209 16.9505 78.6934 16.3019 77.917 16.3019ZM83.042 20.7832C82.0347 20.7832 81.3419 20.1641 81.3419 19.1961C81.3419 18.2772 81.9807 17.6581 83.1796 17.6581H84.4915V17.1717C84.4915 16.5771 84.1132 16.297 83.5137 16.297C82.9241 16.297 82.6587 16.5427 82.5752 16.8867H81.5384C81.6023 16.0169 82.2558 15.4322 83.5481 15.4322C84.6586 15.4322 85.5775 15.8941 85.5775 17.1864V20.7046H84.5407V20.0314H84.4915C84.2606 20.4294 83.8085 20.7832 83.042 20.7832ZM83.381 19.9381C84.0002 19.9381 84.4915 19.5155 84.4915 18.9504V18.3903H83.3516C82.7177 18.3903 82.4376 18.7096 82.4376 19.142C82.4376 19.6825 82.8897 19.9381 83.381 19.9381ZM88.9384 15.442C89.6705 15.442 90.2307 15.7664 90.4322 16.2921H90.4862V13.6436H91.577V20.7046H90.5157V19.8742H90.4616C90.3044 20.3999 89.6804 20.7734 88.9237 20.7734C87.7296 20.7734 86.9533 19.9233 86.9533 18.5524V17.663C86.9533 16.2921 87.7444 15.442 88.9384 15.442ZM89.2431 16.3363C88.5158 16.3363 88.0638 16.8768 88.0638 17.8203V18.3903C88.0638 19.3386 88.5207 19.8791 89.2676 19.8791C90.0047 19.8791 90.4862 19.3435 90.4862 18.459V17.6729C90.4862 16.8719 89.9604 16.3363 89.2431 16.3363ZM97.5668 15.4224C98.923 15.4224 99.8713 16.3019 99.8713 17.7613V18.4345C99.8713 19.943 98.923 20.793 97.5668 20.793C96.191 20.793 95.2525 19.9528 95.2525 18.4394V17.7662C95.2525 16.3462 96.2057 15.4224 97.5668 15.4224ZM97.5717 16.3019C96.7954 16.3019 96.3531 16.9505 96.3531 17.8203V18.4001C96.3531 19.2698 96.7659 19.9135 97.5717 19.9135C98.3677 19.9135 98.7756 19.2747 98.7756 18.4001V17.8203C98.7756 16.9505 98.3481 16.3019 97.5717 16.3019ZM101.277 20.7046V15.5108H102.348V16.4444H102.402C102.535 16.0366 102.913 15.4322 103.964 15.4322C105.011 15.4322 105.714 16.012 105.714 17.1962V20.7046H104.623V17.5156C104.623 16.7245 104.21 16.3609 103.596 16.3609C102.79 16.3609 102.367 16.98 102.367 17.8203V20.7046H101.277ZM109.935 15.5452V14.248H111.001V15.5452H112.165V16.4002H111.001V19.1568C111.001 19.7219 111.212 19.8791 111.797 19.8791C111.944 19.8791 112.141 19.8693 112.224 19.8594V20.6948C112.136 20.7095 111.772 20.739 111.527 20.739C110.264 20.739 109.92 20.2869 109.92 19.2452V16.4002H109.129V15.5452H109.935ZM113.541 20.7046V13.6436H114.627V16.4444H114.681C114.794 16.0759 115.217 15.4322 116.258 15.4322C117.271 15.4322 117.993 16.0169 117.993 17.2011V20.7046H116.907V17.5205C116.907 16.7294 116.47 16.3609 115.851 16.3609C115.069 16.3609 114.627 16.9751 114.627 17.8203V20.7046H113.541ZM121.654 20.793C120.238 20.793 119.359 19.9233 119.359 18.459V17.7564C119.359 16.2823 120.322 15.4224 121.59 15.4224C122.892 15.4224 123.811 16.3265 123.811 17.7564V18.3657H120.44V18.6212C120.44 19.3681 120.882 19.9184 121.649 19.9184C122.219 19.9184 122.612 19.6482 122.685 19.3238H123.752C123.688 19.9233 123.054 20.793 121.654 20.793ZM120.44 17.6532H122.744V17.5844C122.744 16.8031 122.287 16.2823 121.595 16.2823C120.902 16.2823 120.44 16.8031 120.44 17.5844V17.6532Z" fill="white"/>
<path d="M48.3613 37.7046H46.0912L50.71 24.2903H53.2062L57.8152 37.7046H55.4567L54.2675 33.9899H49.5603L48.3613 37.7046ZM51.9679 26.6095H51.8795L50.0614 32.2799H53.7664L51.9679 26.6095ZM64.0804 37.852C62.734 37.852 61.712 37.2132 61.1617 36.26H61.083V41.154H58.9014V27.3171H61.0241V28.8403H61.1027C61.6727 27.8478 62.734 27.1795 64.1295 27.1795C66.4586 27.1795 68.1194 28.9386 68.1194 32.044V32.9678C68.1194 36.0536 66.4783 37.852 64.0804 37.852ZM63.5792 36.0536C64.9648 36.0536 65.9083 34.9431 65.9083 32.8499V32.1227C65.9083 30.1081 65.0238 28.9583 63.5399 28.9583C62.0166 28.9583 61.0634 30.1965 61.0634 32.1128V32.8499C61.0634 34.8154 62.0265 36.0536 63.5792 36.0536ZM75.1708 37.852C73.8244 37.852 72.8024 37.2132 72.2521 36.26H72.1734V41.154H69.9918V27.3171H72.1145V28.8403H72.1931C72.7631 27.8478 73.8244 27.1795 75.2199 27.1795C77.549 27.1795 79.2098 28.9386 79.2098 32.044V32.9678C79.2098 36.0536 77.5687 37.852 75.1708 37.852ZM74.6696 36.0536C76.0552 36.0536 76.9987 34.9431 76.9987 32.8499V32.1227C76.9987 30.1081 76.1142 28.9583 74.6303 28.9583C73.107 28.9583 72.1538 30.1965 72.1538 32.1128V32.8499C72.1538 34.8154 73.1169 36.0536 74.6696 36.0536ZM83.7309 33.98H85.9125C86.0108 35.1397 87.0329 36.1322 88.9295 36.1322C90.669 36.1322 91.7008 35.3165 91.7008 34.0488C91.7008 33.0268 91.0129 32.4764 89.5781 32.1325L87.3768 31.5822C85.6472 31.1792 84.0945 30.1474 84.0945 27.9657C84.0945 25.4008 86.3351 23.9955 88.9394 23.9955C91.5436 23.9955 93.7155 25.4008 93.7646 27.9067H91.6222C91.524 26.7668 90.6493 25.8233 88.9099 25.8233C87.3768 25.8233 86.3351 26.5506 86.3351 27.7986C86.3351 28.6733 86.9444 29.3022 88.1925 29.5872L90.384 30.1277C92.3986 30.6191 93.9317 31.5723 93.9317 33.8523C93.9317 36.486 91.7991 37.9699 88.7625 37.9699C85.0281 37.9699 83.78 35.7883 83.7309 33.98ZM96.5902 27.3171V24.7915H98.7326V27.3171H100.757V29.0664H98.7326V34.609C98.7326 35.7391 99.1551 36.0536 100.325 36.0536C100.511 36.0536 100.688 36.0536 100.816 36.0339V37.7046C100.639 37.7341 100.226 37.7734 99.7841 37.7734C97.2585 37.7734 96.5607 36.8693 96.5607 34.7859V29.0664H95.1259V27.3171H96.5902ZM106.649 27.1402C109.636 27.1402 111.258 29.2433 111.258 32.0735V32.9088C111.258 35.8374 109.646 37.8815 106.649 37.8815C103.651 37.8815 102.02 35.8374 102.02 32.9088V32.0735C102.02 29.2531 103.661 27.1402 106.649 27.1402ZM106.649 28.8895C105.027 28.8895 104.221 30.2162 104.221 32.103V32.899C104.221 34.7564 105.017 36.1224 106.649 36.1224C108.28 36.1224 109.066 34.7662 109.066 32.899V32.103C109.066 30.2063 108.27 28.8895 106.649 28.8895ZM113.101 37.7046V27.3171H115.282V28.6831H115.361C115.626 28.0345 116.403 27.1697 117.847 27.1697C118.132 27.1697 118.378 27.1893 118.584 27.2286V29.1548C118.398 29.1057 118.014 29.0762 117.651 29.0762C115.901 29.0762 115.312 30.1572 115.312 31.5527V37.7046H113.101ZM123.877 37.8815C121.095 37.8815 119.326 36.0438 119.326 32.9678V31.9163C119.326 29.0172 121.056 27.1402 123.788 27.1402C126.559 27.1402 128.23 29.086 128.23 32.0146V33.0071H121.479V33.2528C121.479 35.0021 122.422 36.1617 123.906 36.1617C125.016 36.1617 125.773 35.6114 126.039 34.7171H128.112C127.798 36.3976 126.441 37.8815 123.877 37.8815ZM121.479 31.4839H126.097V31.4642C126.097 29.9901 125.184 28.8305 123.798 28.8305C122.393 28.8305 121.479 29.9901 121.479 31.4642V31.4839Z" fill="white"/>
</svg>
