<svg width="209" height="32" viewBox="0 0 209 32" fill="none" xmlns="http://www.w3.org/2000/svg">
<path fill-rule="evenodd" clip-rule="evenodd" d="M189.115 16.1358C189.115 21.5332 184.74 25.9087 179.342 25.9087C173.945 25.9087 169.569 21.5332 169.569 16.1358C169.569 10.7383 173.945 6.36285 179.342 6.36285C184.74 6.36285 189.115 10.7383 189.115 16.1358ZM184.236 16.1297C184.236 18.8358 182.043 21.0295 179.336 21.0295C176.63 21.0295 174.437 18.8358 174.437 16.1297C174.437 13.4235 176.63 11.2298 179.336 11.2298C182.043 11.2298 184.236 13.4235 184.236 16.1297ZM53.8416 20.0061H55.2605L59.0492 25.7096H64.607L60.16 18.7702C60.5588 18.483 60.9097 18.1554 61.2098 17.7861C61.7632 17.1246 62.1603 16.3865 62.3955 15.5753C62.6391 14.7903 62.7624 14.0002 62.7624 13.2069C62.7624 12.2137 62.5969 11.3033 62.2523 10.4863C61.9091 9.65637 61.401 8.9468 60.7306 8.36519C60.0727 7.76406 59.2636 7.31989 58.3199 7.02216C57.3701 6.70624 56.3056 6.55382 55.1344 6.55382H49.0907V25.7096H53.8416V20.0061ZM53.2333 10.5745V15.9854H55.7437C56.28 15.9854 56.7268 15.8961 57.0843 15.7173C57.4418 15.5386 57.718 15.3111 57.913 15.0349C58.1242 14.7586 58.2705 14.4743 58.3517 14.1818C58.4492 13.8731 58.498 13.5887 58.498 13.3287C58.498 13.1337 58.4655 12.89 58.4005 12.5975C58.3517 12.2888 58.238 11.98 58.0592 11.6713C57.8805 11.3626 57.6043 11.1026 57.2305 10.8914C56.8731 10.6801 56.3856 10.5745 55.7681 10.5745H53.2333ZM144.65 6.55383H131.344V11.1829H135.536V25.7096H140.287V11.1829H144.65V6.55383ZM196.835 12.6583V6.55382H192.035V25.7096H196.835V18.5773L197.029 18.3829L202.326 25.7096H208.339L200.478 15.2451L208.485 6.55382H202.241L196.835 12.6583ZM156.876 25.9087C162.273 25.9087 166.648 21.5332 166.648 16.1358C166.648 10.7383 162.273 6.36285 156.876 6.36285C151.478 6.36285 147.103 10.7383 147.103 16.1358C147.103 21.5332 151.478 25.9087 156.876 25.9087ZM156.87 21.0295C159.576 21.0295 161.769 18.8358 161.769 16.1296C161.769 13.4235 159.576 11.2298 156.87 11.2298C154.164 11.2298 151.97 13.4235 151.97 16.1296C151.97 18.8358 154.164 21.0295 156.87 21.0295ZM115.37 6.55382V12.6583L120.776 6.55382H127.02L119.013 15.2451L126.874 25.7096H120.861L115.564 18.3829L115.37 18.5773V25.7096H110.57V6.55382H115.37ZM97.8783 25.9087C103.276 25.9087 107.651 21.5332 107.651 16.1358C107.651 10.7384 103.276 6.36285 97.8783 6.36285C92.4808 6.36285 88.1053 10.7384 88.1053 16.1358C88.1053 21.5332 92.4808 25.9087 97.8783 25.9087ZM97.8724 21.0295C100.579 21.0295 102.772 18.8358 102.772 16.1297C102.772 13.4235 100.579 11.2298 97.8724 11.2298C95.1663 11.2298 92.9726 13.4235 92.9726 16.1297C92.9726 18.8358 95.1663 21.0295 97.8724 21.0295ZM85.1854 16.1358C85.1854 21.5332 80.8099 25.9087 75.4125 25.9087C70.015 25.9087 65.6395 21.5332 65.6395 16.1358C65.6395 10.7384 70.015 6.36285 75.4125 6.36285C80.8099 6.36285 85.1854 10.7384 85.1854 16.1358ZM80.3064 16.1297C80.3064 18.8358 78.1127 21.0295 75.4066 21.0295C72.7005 21.0295 70.5067 18.8358 70.5067 16.1297C70.5067 13.4235 72.7005 11.2298 75.4066 11.2298C78.1127 11.2298 80.3064 13.4235 80.3064 16.1297Z" fill="white"/>
<mask id="path-2-inside-1_581_4162" fill="white">
<path fill-rule="evenodd" clip-rule="evenodd" d="M7.99998 0.000137329H0V8.00012H7.99998V0.000137329ZM40 0.000137329H32V8.00012H40V0.000137329ZM8 8.00014H16V24.0001H8V8.00014ZM32 8.00014H24V32.0001H32V8.00014Z"/>
</mask>
<path fill-rule="evenodd" clip-rule="evenodd" d="M7.99998 0.000137329H0V8.00012H7.99998V0.000137329ZM40 0.000137329H32V8.00012H40V0.000137329ZM8 8.00014H16V24.0001H8V8.00014ZM32 8.00014H24V32.0001H32V8.00014Z" fill="white"/>
<path d="M0 0.000137329V-0.19188H-0.192018V0.000137329H0ZM7.99998 0.000137329H8.192V-0.19188H7.99998V0.000137329ZM0 8.00012H-0.192018V8.19214H0V8.00012ZM7.99998 8.00012V8.19214H8.192V8.00012H7.99998ZM32 0.000137329V-0.19188H31.808V0.000137329H32ZM40 0.000137329H40.192V-0.19188H40V0.000137329ZM32 8.00012H31.808V8.19214H32V8.00012ZM40 8.00012V8.19214H40.192V8.00012H40ZM16 8.00014H16.192V7.80812H16V8.00014ZM8 8.00014V7.80812H7.80798V8.00014H8ZM16 24.0001V24.1921H16.192V24.0001H16ZM8 24.0001H7.80798V24.1921H8V24.0001ZM24 8.00014V7.80812H23.808V8.00014H24ZM32 8.00014H32.192V7.80812H32V8.00014ZM24 32.0001H23.808V32.1921H24V32.0001ZM32 32.0001V32.1921H32.192V32.0001H32ZM0 0.192155H7.99998V-0.19188H0V0.192155ZM0.192018 8.00012V0.000137329H-0.192018V8.00012H0.192018ZM7.99998 7.8081H0V8.19214H7.99998V7.8081ZM7.80796 0.000137329V8.00012H8.192V0.000137329H7.80796ZM32 0.192155H40V-0.19188H32V0.192155ZM32.192 8.00012V0.000137329H31.808V8.00012H32.192ZM40 7.8081H32V8.19214H40V7.8081ZM39.808 0.000137329V8.00012H40.192V0.000137329H39.808ZM16 7.80812H8V8.19215H16V7.80812ZM16.192 24.0001V8.00014H15.808V24.0001H16.192ZM8 24.1921H16V23.8081H8V24.1921ZM7.80798 8.00014V24.0001H8.19202V8.00014H7.80798ZM24 8.19215H32V7.80812H24V8.19215ZM24.192 32.0001V8.00014H23.808V32.0001H24.192ZM32 31.8081H24V32.1921H32V31.8081ZM31.808 8.00014V32.0001H32.192V8.00014H31.808Z" fill="black" mask="url(#path-2-inside-1_581_4162)"/>
<path d="M16.096 0.0960088H23.904V7.90397H16.096V0.0960088Z" fill="white" stroke="black" stroke-width="0.192018"/>
</svg>
