<svg width="142" height="48" viewBox="0 0 142 48" fill="none" xmlns="http://www.w3.org/2000/svg">
<rect width="141.6" height="48" rx="7.2" fill="#2B2D30"/>
<rect x="0.247709" y="0.247709" width="141.105" height="47.5046" rx="6.95229" stroke="#A6A6A6" stroke-opacity="0.3" stroke-width="0.495419"/>
<path d="M26.4184 23.0808L16.1046 34.2747C16.1056 34.2766 16.1056 34.2796 16.1066 34.2816C16.4233 35.4971 17.5083 36.3916 18.7966 36.3916C19.312 36.3916 19.7954 36.249 20.21 35.9993L20.2429 35.9795L31.8519 29.1294L26.4184 23.0808Z" fill="#EA4335"/>
<path d="M36.8517 21.1753L36.842 21.1684L31.8299 18.1975L26.1833 23.3358L31.8503 29.1289L36.8352 26.1878C37.709 25.7044 38.3028 24.7623 38.3028 23.6766C38.3028 22.5968 37.7177 21.6597 36.8517 21.1753Z" fill="#FBBC04"/>
<path d="M16.1041 13.0288C16.0421 13.2626 16.0092 13.5082 16.0092 13.7618V33.5424C16.0092 33.7959 16.0421 34.0416 16.1051 34.2744L26.7724 23.3668L16.1041 13.0288Z" fill="#4285F4"/>
<path d="M26.4941 23.6523L31.8316 18.1951L20.2363 11.3202C19.8149 11.0617 19.3228 10.9131 18.7968 10.9131C17.5084 10.9131 16.4215 11.8096 16.1047 13.0261C16.1047 13.0271 16.1038 13.028 16.1038 13.029L26.4941 23.6523Z" fill="#34A853"/>
<path d="M54.15 15.0903C54.15 16.1961 53.8219 17.0771 53.1658 17.7333C52.4286 18.5147 51.4591 18.9055 50.2574 18.9055C49.1073 18.9055 48.1342 18.5073 47.338 17.7111C46.5418 16.9149 46.1437 15.9344 46.1437 14.7696C46.1437 13.6048 46.5418 12.6242 47.338 11.828C48.1342 11.0318 49.1073 10.6337 50.2574 10.6337C50.8398 10.6337 51.3891 10.7369 51.9051 10.9434C52.4212 11.1498 52.8451 11.441 53.1768 11.817L52.447 12.5468C52.2037 12.2519 51.8867 12.0234 51.496 11.8612C51.1126 11.6916 50.6997 11.6069 50.2574 11.6069C49.3948 11.6069 48.665 11.9054 48.0678 12.5026C47.478 13.1071 47.1832 13.8628 47.1832 14.7696C47.1832 15.6764 47.478 16.432 48.0678 17.0366C48.665 17.6337 49.3948 17.9323 50.2574 17.9323C51.0462 17.9323 51.7024 17.7111 52.2258 17.2688C52.7492 16.8265 53.0515 16.2182 53.1326 15.4442H50.2574V14.4931H54.0947C54.1316 14.6996 54.15 14.8986 54.15 15.0903ZM60.0085 10.8107V11.7838H56.4035V14.2941H59.6547V15.2451H56.4035V17.7554H60.0085V18.7285H55.3861V10.8107H60.0085ZM64.078 11.7838V18.7285H63.0606V11.7838H60.8489V10.8107H66.2897V11.7838H64.078ZM70.7989 18.7285H69.7815V10.8107H70.7989V18.7285ZM75.0932 11.7838V18.7285H74.0759V11.7838H71.8642V10.8107H77.3049V11.7838H75.0932ZM88.3328 14.7696C88.3328 15.9418 87.9421 16.9223 87.1606 17.7111C86.3718 18.5073 85.406 18.9055 84.2633 18.9055C83.1132 18.9055 82.1474 18.5073 81.366 17.7111C80.5845 16.9223 80.1938 15.9418 80.1938 14.7696C80.1938 13.5974 80.5845 12.6169 81.366 11.828C82.1474 11.0318 83.1132 10.6337 84.2633 10.6337C85.4134 10.6337 86.3791 11.0355 87.1606 11.8391C87.9421 12.6279 88.3328 13.6048 88.3328 14.7696ZM81.2333 14.7696C81.2333 15.6838 81.5208 16.4394 82.0958 17.0366C82.6782 17.6337 83.4007 17.9323 84.2633 17.9323C85.1259 17.9323 85.8447 17.6337 86.4197 17.0366C87.0021 16.4468 87.2933 15.6911 87.2933 14.7696C87.2933 13.848 87.0021 13.0924 86.4197 12.5026C85.8447 11.9054 85.1259 11.6069 84.2633 11.6069C83.4007 11.6069 82.6782 11.9054 82.0958 12.5026C81.5208 13.0998 81.2333 13.8554 81.2333 14.7696ZM90.5508 18.7285H89.5334V10.8107H90.772L94.6203 16.9702H94.6646L94.6203 15.4442V10.8107H95.6377V18.7285H94.5761L90.5508 12.2704H90.5066L90.5508 13.7964V18.7285Z" fill="white"/>
<path d="M106.796 35.0258H108.526V23.3359H106.796V35.0258ZM122.371 27.5467L120.389 32.6151H120.329L118.272 27.5467H116.41L119.495 34.6303L117.737 38.5709H119.539L124.294 27.5467H122.371ZM112.565 33.698C111.998 33.698 111.208 33.4128 111.208 32.7049C111.208 31.8034 112.192 31.4574 113.041 31.4574C113.801 31.4574 114.16 31.6229 114.621 31.8483C114.487 32.9312 113.563 33.698 112.565 33.698ZM112.773 27.2915C111.522 27.2915 110.224 27.8479 109.689 29.0813L111.223 29.7274C111.551 29.0813 112.162 28.8699 112.803 28.8699C113.697 28.8699 114.606 29.4114 114.621 30.3746V30.4942C114.308 30.3138 113.638 30.0435 112.818 30.0435C111.164 30.0435 109.479 30.9609 109.479 32.675C109.479 34.2394 110.836 35.2475 112.356 35.2475C113.518 35.2475 114.16 34.721 114.562 34.1038H114.621V35.0062H116.29V30.5242C116.29 28.4491 114.756 27.2915 112.773 27.2915ZM102.087 28.97H99.6277V24.963H102.087C103.38 24.963 104.114 26.0431 104.114 26.966C104.114 27.8722 103.38 28.97 102.087 28.97ZM102.043 23.3359H97.8995V35.0258H99.6277V30.5971H102.043C103.959 30.5971 105.843 29.1963 105.843 26.966C105.843 24.7358 103.959 23.3359 102.043 23.3359ZM79.4495 33.6998C78.255 33.6998 77.2551 32.6908 77.2551 31.305C77.2551 29.9042 78.255 28.8793 79.4495 28.8793C80.6292 28.8793 81.554 29.9042 81.554 31.305C81.554 32.6908 80.6292 33.6998 79.4495 33.6998ZM81.4354 28.2013H81.3751C80.9868 27.7347 80.2409 27.313 79.3003 27.313C77.3293 27.313 75.5232 29.0598 75.5232 31.305C75.5232 33.5343 77.3293 35.2671 79.3003 35.2671C80.2409 35.2671 80.9868 34.8454 81.3751 34.3628H81.4354V34.9361C81.4354 36.4575 80.6291 37.2711 79.33 37.2711C78.2698 37.2711 77.6128 36.5024 77.3441 35.8544L75.8364 36.4874C76.2692 37.5423 77.4192 38.8374 79.33 38.8374C81.3603 38.8374 83.0774 37.632 83.0774 34.6948V27.5533H81.4354V28.2013ZM84.2719 35.0258H86.0038V23.335H84.2719V35.0258ZM88.5559 31.1694C88.5114 29.633 89.7355 28.8494 90.6159 28.8494C91.3035 28.8494 91.8854 29.1954 92.0791 29.6929L88.5559 31.1694ZM93.9306 29.8434C93.6025 28.955 92.6017 27.313 90.5566 27.313C88.5262 27.313 86.8397 28.9242 86.8397 31.29C86.8397 33.5194 88.5114 35.2671 90.7502 35.2671C92.5572 35.2671 93.6025 34.1524 94.0353 33.5044L92.6916 32.6001C92.244 33.2631 91.6315 33.6998 90.7502 33.6998C89.8699 33.6998 89.2425 33.2931 88.8394 32.4954L94.1094 30.2951L93.9306 29.8434ZM51.945 28.5333V30.2203H55.9455C55.8259 31.1694 55.5127 31.8623 55.0355 32.3439C54.4526 32.9321 53.5417 33.5801 51.945 33.5801C49.481 33.5801 47.5554 31.5762 47.5554 29.0906C47.5554 26.6041 49.481 24.6011 51.945 24.6011C53.2739 24.6011 54.2441 25.1285 54.9604 25.8065L56.1401 24.6161C55.1393 23.652 53.8113 22.9132 51.945 22.9132C48.571 22.9132 45.7345 25.6859 45.7345 29.0906C45.7345 32.4954 48.571 35.2671 51.945 35.2671C53.7659 35.2671 55.1393 34.664 56.2142 33.5343C57.3197 32.4197 57.6626 30.8533 57.6626 29.5872C57.6626 29.1954 57.6329 28.8344 57.5727 28.5333H51.945ZM62.2116 33.6998C61.0171 33.6998 59.9867 32.7058 59.9867 31.29C59.9867 29.8584 61.0171 28.8793 62.2116 28.8793C63.4051 28.8793 64.4356 29.8584 64.4356 31.29C64.4356 32.7058 63.4051 33.6998 62.2116 33.6998ZM62.2116 27.313C60.0311 27.313 58.2547 28.985 58.2547 31.29C58.2547 33.5801 60.0311 35.2671 62.2116 35.2671C64.3911 35.2671 66.1676 33.5801 66.1676 31.29C66.1676 28.985 64.3911 27.313 62.2116 27.313ZM70.8417 33.6998C69.6472 33.6998 68.6167 32.7058 68.6167 31.29C68.6167 29.8584 69.6472 28.8793 70.8417 28.8793C72.0361 28.8793 73.0657 29.8584 73.0657 31.29C73.0657 32.7058 72.0361 33.6998 70.8417 33.6998ZM70.8417 27.313C68.6621 27.313 66.8857 28.985 66.8857 31.29C66.8857 33.5801 68.6621 35.2671 70.8417 35.2671C73.0212 35.2671 74.7976 33.5801 74.7976 31.29C74.7976 28.985 73.0212 27.313 70.8417 27.313Z" fill="white"/>
</svg>
