<svg width="1424" height="256" viewBox="0 0 1424 256" fill="none" xmlns="http://www.w3.org/2000/svg">
<path fill-rule="evenodd" clip-rule="evenodd" d="M687.952 276.474C764.061 276.474 825.76 214.775 825.76 138.666C825.76 62.5567 764.061 0.85791 687.952 0.85791C611.842 0.85791 550.144 62.5567 550.144 138.666C550.144 214.775 611.842 276.474 687.952 276.474ZM687.87 207.675C726.029 207.675 756.963 176.741 756.963 138.582C756.963 100.424 726.029 69.4896 687.87 69.4896C649.711 69.4896 618.777 100.424 618.777 138.582C618.777 176.741 649.711 207.675 687.87 207.675ZM1974.48 138.666C1974.48 214.775 1912.78 276.474 1836.67 276.474C1760.56 276.474 1698.86 214.775 1698.86 138.666C1698.86 62.5569 1760.56 0.858149 1836.67 0.858149C1912.78 0.858149 1974.48 62.5569 1974.48 138.666ZM1905.68 138.582C1905.68 176.741 1874.75 207.675 1836.59 207.675C1798.43 207.675 1767.49 176.741 1767.49 138.582C1767.49 100.424 1798.43 69.4896 1836.59 69.4896C1874.75 69.4896 1905.68 100.424 1905.68 138.582ZM66.9927 193.242H86.9996L140.424 273.665H218.795L156.087 175.814C161.71 171.764 166.66 167.145 170.891 161.937C178.695 152.609 184.293 142.202 187.611 130.763C191.046 119.694 192.784 108.552 192.784 97.3653C192.784 83.3604 190.45 70.5231 185.591 59.0033C180.752 47.3 173.587 37.2944 164.133 29.0931C154.856 20.6166 143.447 14.3534 130.141 10.1552C116.748 5.70029 101.737 3.55105 85.2219 3.55105H0V273.665H66.9927V193.242ZM58.414 60.2466V136.546H93.8142C101.375 136.546 107.676 135.286 112.717 132.766C117.758 130.245 121.653 127.037 124.403 123.142C127.381 119.247 129.444 115.237 130.589 111.113C131.964 106.76 132.651 102.75 132.651 99.0837C132.651 96.3342 132.193 92.8973 131.277 88.773C130.589 84.4196 128.985 80.0661 126.465 75.7127C123.945 71.3593 120.049 67.6932 114.779 64.7146C109.739 61.7359 102.865 60.2466 94.1579 60.2466H58.414ZM1347.47 3.55105H1159.84V68.8253H1218.96V273.665H1285.95V68.8253H1347.47V3.55105ZM2083.33 89.6295V3.55105H2015.65V273.665H2083.33V173.094L2086.07 170.353L2160.75 273.665H2245.55L2134.7 126.107L2247.6 3.55105H2159.56L2083.33 89.6295ZM1519.86 276.474C1595.97 276.474 1657.67 214.775 1657.67 138.666C1657.67 62.5569 1595.97 0.858149 1519.86 0.858149C1443.75 0.858149 1382.05 62.5569 1382.05 138.666C1382.05 214.775 1443.75 276.474 1519.86 276.474ZM1519.78 207.675C1557.94 207.675 1588.87 176.741 1588.87 138.582C1588.87 100.423 1557.94 69.4895 1519.78 69.4895C1481.62 69.4895 1450.69 100.423 1450.69 138.582C1450.69 176.741 1481.62 207.675 1519.78 207.675ZM934.595 3.55105V89.6295L1010.83 3.55105H1098.87L985.97 126.107L1096.82 273.665H1012.02L937.336 170.353L934.595 173.094V273.665H866.915V3.55105H934.595ZM508.967 138.666C508.967 214.775 447.268 276.474 371.159 276.474C295.049 276.474 233.351 214.775 233.351 138.666C233.351 62.5569 295.049 0.858149 371.159 0.858149C447.268 0.858149 508.967 62.5569 508.967 138.666ZM440.168 138.582C440.168 176.741 409.234 207.675 371.075 207.675C332.916 207.675 301.982 176.741 301.982 138.582C301.982 100.424 332.916 69.4896 371.075 69.4896C409.234 69.4896 440.168 100.424 440.168 138.582Z" fill="#20292F" fill-opacity="0.6"/>
</svg>
